{"title":"Sunday Bloody Sunday 1971.720p.BluRay.x264 . NVEE","uid":8788335,"size":1201583575,"categoryP":"video","categoryS":"hd___movies","magnet":"?xt=urn:btih:1c621e2cea474c3fa15cc6f3ff420d374561680a&amp;dn=Sunday+Bloody+Sunday+1971.720p.BluRay.x264+.+NVEE&amp;tr=udp%3A%2F%2Ftracker.openbittorrent.com%3A80&amp;tr=udp%3A%2F%2Fopen.demonii.com%3A1337&amp;tr=udp%3A%2F%2Ftracker.coppersurfer.tk%3A6969&amp;tr=udp%3A%2F%2Fexodus.desync.com%3A6969","seeders":0,"leechers":1,"uploader":".NVEE","files":2,"time":1375880565,"description":"\nFULL_INFOs\n\n\n99.99% --- SYNCED GUARANTEED \n\nSource : BluRay ~ 720p\n\nMy Media Player of Choice &quot;VLC Media Player&quot;\n\nSpoken Language : English Only\n\nAudio : 1 ~ Channel Only {With proper hardware, you shall be impressed}\n\nOnly @ https://kickass.to/user/.NVEE/uploads/\n\n &lt;a href=&quot;\nhttp://www.imdb.com/title/tt0067805/&quot; rel=&quot;nofollow&quot; target=&quot;_NEW&quot;&gt;\nhttp://www.imdb.com/title/tt0067805/&lt;/a&gt;\n\n\nSubs Info : MULTI_SUBS\n\n &lt;a href=&quot;\nhttp://www.subtitleseeker.com/0067805/Sunday+Bloody+Sunday/Subtitles/&quot; rel=&quot;nofollow&quot; target=&quot;_NEW&quot;&gt;\nhttp://www.subtitleseeker.com/0067805/Sunday+Bloody+Sunday/Subtitles/&lt;/a&gt;\n\n27 Subtitles In 7 Languages Use Link Provided \n &lt;a href=&quot;\nhttp://www.subtitleseeker.com/0067805/Sunday+Bloody+Sunday/Subtitles/&quot; rel=&quot;nofollow&quot; target=&quot;_NEW&quot;&gt;\nhttp://www.subtitleseeker.com/0067805/Sunday+Bloody+Sunday/Subtitles/&lt;/a&gt;\n\n27 Subtitles In 7 Languages Only @ SubtitleSeeker\n &lt;a href=&quot;\nhttp://www.subtitleseeker.com/0067805/Sunday+Bloody+Sunday/Subtitles/&quot; rel=&quot;nofollow&quot; target=&quot;_NEW&quot;&gt;\nhttp://www.subtitleseeker.com/0067805/Sunday+Bloody+Sunday/Subtitles/&lt;/a&gt;\n\n\nAll .srt subs can be turned On/Off\n\n\n &lt;a href=&quot;\nhttp://www.imdb.com/title/tt0067805/&quot; rel=&quot;nofollow&quot; target=&quot;_NEW&quot;&gt;\nhttp://www.imdb.com/title/tt0067805/&lt;/a&gt;\n\n\n\n--------------------------------------------------------------------------------\n\n\nGeneral\n\nComplete name : Sunday Bloody Sunday 1971.720p.BluRay.x264 . NVEE.mp4\nFormat : MPEG-4\nFormat profile : Base Media\nCodec ID : isom\nFile size : 1.12 GiB\nDuration : 1h 50mn\nOverall bit rate : 1 451 Kbps\nEncoded date : UTC 2013-08-07 02:38:57\nTagged date : UTC 2013-08-07 02:38:57\n\nVideo\n\nID : 1\nFormat : AVC\nFormat/Info : Advanced Video Codec\nFormat profile : &lt;a class=&quot;__cf_email__&quot; href=&quot;/cdn-cgi/l/email-protection&quot; data-cfemail=&quot;c28aaba5aa828ef1ecf0&quot;&gt;[email&amp;#160;protected]&lt;/a&gt;&lt;script cf-hash='f9e31' type=&quot;text/javascript&quot;&gt;\n/* &lt;![CDATA[ */!function(){try{var t=&quot;currentScript&quot;in document?document.currentScript:function(){for(var t=document.getElementsByTagName(&quot;script&quot;),e=t.length;e--;)if(t[e].getAttribute(&quot;cf-hash&quot;))return t[e]}();if(t&amp;&amp;t.previousSibling){var e,r,n,i,c=t.previousSibling,a=c.getAttribute(&quot;data-cfemail&quot;);if(a){for(e=&quot;&quot;,r=parseInt(a.substr(0,2),16),n=2;a.length-n;n+=2)i=parseInt(a.substr(n,2),16)^r,e+=String.fromCharCode(i);e=document.createTextNode(e),c.parentNode.replaceChild(e,c)}}}catch(u){}}();/* ]]&gt; */&lt;/script&gt;\nFormat settings, CABAC : Yes\nFormat settings, ReFrames : 4 frames\nCodec ID : avc1\nCodec ID/Info : Advanced Video Coding\nDuration : 1h 50mn\nBit rate : 1 129 Kbps\nMaximum bit rate : 6 761 Kbps\nWidth : 1 200 pixels\nHeight : 720 pixels\nDisplay aspect ratio : 1.667\nFrame rate mode : Constant\nFrame rate : 23.976 fps\nColor space : YUV\nChroma subsampling : 4:2:0\nBit depth : 8 bits\nScan type : Progressive\nBits/(Pixel*Frame) : 0.055\nStream size : 891 MiB (78%)\nTitle : 720p.BluRay.x264 .264#trackID=1:fps=&lt;a class=&quot;__cf_email__&quot; href=&quot;/cdn-cgi/l/email-protection&quot; data-cfemail=&quot;efdddcc1d6d8d9afa8bfaeacdfc1dac1dec2abaab9c29d8a99dbddd7dc&quot;&gt;[email&amp;#160;protected]&lt;/a&gt;&lt;script cf-hash='f9e31' type=&quot;text/javascript&quot;&gt;\n/* &lt;![CDATA[ */!function(){try{var t=&quot;currentScript&quot;in document?document.currentScript:function(){for(var t=document.getElementsByTagName(&quot;script&quot;),e=t.length;e--;)if(t[e].getAttribute(&quot;cf-hash&quot;))return t[e]}();if(t&amp;&amp;t.previousSibling){var e,r,n,i,c=t.previousSibling,a=c.getAttribute(&quot;data-cfemail&quot;);if(a){for(e=&quot;&quot;,r=parseInt(a.substr(0,2),16),n=2;a.length-n;n+=2)i=parseInt(a.substr(n,2),16)^r,e+=String.fromCharCode(i);e=document.createTextNode(e),c.parentNode.replaceChild(e,c)}}}catch(u){}}();/* ]]&gt; */&lt;/script&gt;\nWriting library : x264 core 133 r2334 a3ac64b\nEncoded date : UTC 2013-08-07 02:38:57\nTagged date : UTC 2013-08-07 02:41:42\n\nAudio\n\nID : 2\nFormat : AC-3\nFormat/Info : Audio Coding 3\nMode extension : CM (complete main)\nFormat settings, Endianness : Big\nCodec ID : ac-3\nDuration : 1h 50mn\nBit rate mode : Constant\nBit rate : 320 Kbps\nChannel(s) : 1 channel\nChannel positions : Front: C\nSampling rate : 48.0 KHz\nBit depth : 16 bits\nCompression mode : Lossy\nStream size : 253 MiB (22%)\nTitle : 720p.BluRay.x264 . NVEE - [0] English_audio.ac3#trackID=1:lang=&lt;a class=&quot;__cf_email__&quot; href=&quot;/cdn-cgi/l/email-protection&quot; data-cfemail=&quot;e98c87a9aeb9a8aad9c7dcc7d8c4adacbfc49b8c9fdddbd1da&quot;&gt;[email&amp;#160;protected]&lt;/a&gt;&lt;script cf-hash='f9e31' type=&quot;text/javascript&quot;&gt;\n/* &lt;![CDATA[ */!function(){try{var t=&quot;currentScript&quot;in document?document.currentScript:function(){for(var t=document.getElementsByTagName(&quot;script&quot;),e=t.length;e--;)if(t[e].getAttribute(&quot;cf-hash&quot;))return t[e]}();if(t&amp;&amp;t.previousSibling){var e,r,n,i,c=t.previousSibling,a=c.getAttribute(&quot;data-cfemail&quot;);if(a){for(e=&quot;&quot;,r=parseInt(a.substr(0,2),16),n=2;a.length-n;n+=2)i=parseInt(a.substr(n,2),16)^r,e+=String.fromCharCode(i);e=document.createTextNode(e),c.parentNode.replaceChild(e,c)}}}catch(u){}}();/* ]]&gt; */&lt;/script&gt;\nLanguage : English\nEncoded date : UTC 2013-08-07 02:41:35\nTagged date : UTC 2013-08-07 02:41:42\n\n\nSynopsis\n\nA Jewish doctor, Daniel Hirsh (Peter Finch) and a young woman, Alex Greville (Glenda Jackson) are both involved in a love triangle with contemporary sculptor Bob Elkin (Murray Head). Not only are Hirsh and Greville aware that Elkin is seeing the other but they know one another through mutual friends. Despite this, they are willing to put up with the situation through fear of losing Elkin, who switches freely between them.\nFor Greville, the relationship is bound up with a growing disillusionment about her life, failed marriage and uneasy childhood. For Hirsh, it represents an escape from the repressed nature of his Jewish upbringing. Both realise the lack of permanence about their situation and it is only when Elkin decides to leave the country that they both come face to face (for the first time in the narrative and at the end). Despite their opposed situations, both come to realize that it is time to move on.\n","torrent":{"xt":"urn:btih:1c621e2cea474c3fa15cc6f3ff420d374561680a","amp;dn":"Sunday+Bloody+Sunday+1971.720p.BluRay.x264+.+NVEE","amp;tr":["udp%3A%2F%2Ftracker.openbittorrent.com%3A80","udp%3A%2F%2Fopen.demonii.com%3A1337","udp%3A%2F%2Ftracker.coppersurfer.tk%3A6969","udp%3A%2F%2Fexodus.desync.com%3A6969"],"infoHash":"1c621e2cea474c3fa15cc6f3ff420d374561680a","infoHashBuffer":{"type":"Buffer","data":[28,98,30,44,234,71,76,63,161,92,198,243,255,66,13,55,69,97,104,10]},"announce":[],"urlList":[]}}